<svg viewBox="0 0 48 48" xmlns="http://www.w3.org/2000/svg"><g fill="none" stroke="#000" stroke-linecap="round" stroke-linejoin="round"><path d="m42.2846 13.2642c-10.904.0838-12.7072 1.8869-15.1393 6.3324h12.0366z"/><path d="m30.7543 28.8652a9.7234 9.7234 0 0 1 -7.8867 7.8848 29.2936 29.2936 0 0 1 -3.9838.4186c-1.5938.0414-14.3838.0414-14.3838.0414s4.8647-.0418 5.5357-.0418a43.6914 43.6914 0 0 0 4.7391-.3355c3.3395-.2817 6.6873-3.7636 7.547-7.0028l.9647-3.2709a5.93 5.93 0 0 1 5.7875-4.781l9.405-.2289-3.2815.08a4.3174 4.3174 0 0 0 -4.0868 3.7988z"/><path d="m19.89 22.5323-8.471.8373-5.703 11.3246c4.5291 0 6.8359-.4186 9.4776-4.1936a77.6174 77.6174 0 0 0 4.6964-7.9681z"/><path d="m43.5 10.79h-17.8621c-6.0406 0-9.1445 2.0549-11.032 5.8294l-1.4677 2.9771h8.1337c2.8539-5.5357 7.0477-8.6786 15.645-8.8065z"/></g></svg>